# xmcd
#
# Track frame offsets: 
#        150
#        18566
#        35958
#        50884
#        75364
#        102148
#        119777
#        137744
#
# Disc length: 2061 seconds
#
# Revision: 2
# Processed by: cddbd v1.5.2PL0 Copyright (c) Steve Scherf et al.
# Submitted via: ExactAudioCopyFreeDBPlugin 1.0
#
DISCID=70080b08
DTITLE=Diana Ross - 1980 - Diana
DYEAR=1980
DGENRE=
TTITLE0=Upside Down
TTITLE1=Tenderness
TTITLE2=Friend to Friend
TTITLE3=I'm Coming Out
TTITLE4=Have Fun (Again)
TTITLE5=My Old Piano
TTITLE6=Now That You're Gone
TTITLE7=Give Up
EXTD=
EXTT0=
EXTT1=
EXTT2=
EXTT3=
EXTT4=
EXTT5=
EXTT6=
EXTT7=
PLAYORDER=
